<?xml version="1.0" encoding="UTF-8" standalone="no"?>
<!-- Generator: visioncortex VTracer 0.6.12 -->

<svg
   viewBox="0 0 1024 1024"
   role="img"
   aria-label="MabuhAi logo"
   version="1.1"
   id="svg371"
   sodipodi:docname="app-logo.svg"
   xml:space="preserve"
   inkscape:version="1.4.4 (1:1.4.4+202605061432+dcaf3e7d9e)"
   xmlns:inkscape="http://www.inkscape.org/namespaces/inkscape"
   xmlns:sodipodi="http://sodipodi.sourceforge.net/DTD/sodipodi-0.dtd"
   xmlns:xlink="http://www.w3.org/1999/xlink"
   xmlns="http://www.w3.org/2000/svg"
   xmlns:svg="http://www.w3.org/2000/svg"><defs
     id="defs371"><linearGradient
       id="linearGradient385"
       inkscape:collect="always"><stop
         style="stop-color:#a8ceb5;stop-opacity:1;"
         offset="0"
         id="stop385" /><stop
         style="stop-color:#bfa7e6;stop-opacity:1;"
         offset="1"
         id="stop386" /></linearGradient><linearGradient
       inkscape:collect="always"
       xlink:href="#linearGradient385"
       id="linearGradient386"
       x1="636.32397"
       y1="629.73627"
       x2="520.08832"
       y2="514.66223"
       gradientUnits="userSpaceOnUse" /></defs><sodipodi:namedview
     id="namedview371"
     pagecolor="#ffffff"
     bordercolor="#000000"
     borderopacity="0.25"
     inkscape:showpageshadow="2"
     inkscape:pageopacity="0.0"
     inkscape:pagecheckerboard="0"
     inkscape:deskcolor="#d1d1d1"
     inkscape:zoom="0.46484375"
     inkscape:cx="405.51261"
     inkscape:cy="591.59664"
     inkscape:window-width="1314"
     inkscape:window-height="699"
     inkscape:window-x="0"
     inkscape:window-y="32"
     inkscape:window-maximized="1"
     inkscape:current-layer="svg371" /><path
     d=""
     fill="#B6B5E4"
     transform="translate(0,0)"
     id="path53" /><path
     d=""
     fill="#ACD0B9"
     transform="translate(0,0)"
     id="path54" /><path
     d=""
     fill="#A3C5B0"
     transform="translate(0,0)"
     id="path55" /><path
     d=""
     fill="#A6C8B2"
     transform="translate(0,0)"
     id="path58" /><path
     d=""
     fill="#A6C6B3"
     transform="translate(0,0)"
     id="path62" /><path
     d=""
     fill="#AACFBC"
     transform="translate(0,0)"
     id="path64" /><path
     d=""
     fill="#ADAFDF"
     transform="translate(0,0)"
     id="path67" /><path
     d=""
     fill="#A9CBB6"
     transform="translate(0,0)"
     id="path68" /><path
     d=""
     fill="#8DBFD6"
     transform="translate(0,0)"
     id="path69" /><path
     d=""
     fill="#AFB1E2"
     transform="translate(0,0)"
     id="path70" /><path
     d=""
     fill="#93C4D6"
     transform="translate(0,0)"
     id="path71" /><path
     d=""
     fill="#A8CBD8"
     transform="translate(0,0)"
     id="path72" /><path
     d=""
     fill="#ADCFB9"
     transform="translate(0,0)"
     id="path73" /><path
     d=""
     fill="#B8B6E4"
     transform="translate(0,0)"
     id="path74" /><path
     d=""
     fill="#B5B6E3"
     transform="translate(0,0)"
     id="path75" /><path
     d=""
     fill="#ABCBDA"
     transform="translate(0,0)"
     id="path76" /><path
     d=""
     fill="#ADD1BB"
     transform="translate(0,0)"
     id="path77" /><path
     d=""
     fill="#ACCEB8"
     transform="translate(0,0)"
     id="path78" /><path
     d=""
     fill="#ADCFBA"
     transform="translate(0,0)"
     id="path80" /><path
     d=""
     fill="#BEAEE5"
     transform="translate(0,0)"
     id="path82" /><path
     d=""
     fill="#AFD0BA"
     transform="translate(0,0)"
     id="path83" /><path
     d=""
     fill="#BAAAE3"
     transform="translate(0,0)"
     id="path84" /><path
     d=""
     fill="#AED1BB"
     transform="translate(0,0)"
     id="path86" /><path
     d=""
     fill="#AED1BB"
     transform="translate(0,0)"
     id="path87" /><path
     d=""
     fill="#ADCFBA"
     transform="translate(0,0)"
     id="path94" /><path
     d=""
     fill="#A8C8B4"
     transform="translate(0,0)"
     id="path95" /><path
     d=""
     fill="#5E605E"
     transform="translate(0,0)"
     id="path97" /><path
     d=""
     fill="#8FB4C0"
     transform="translate(0,0)"
     id="path98" /><path
     d=""
     fill="#97BDBC"
     transform="translate(0,0)"
     id="path99" /><path
     d=""
     fill="#97BDBA"
     transform="translate(0,0)"
     id="path100" /><path
     d=""
     fill="#99BEB9"
     transform="translate(0,0)"
     id="path101" /><path
     d=""
     fill="#8EB3C0"
     transform="translate(0,0)"
     id="path102" /><path
     d=""
     fill="#8FB7C3"
     transform="translate(0,0)"
     id="path103" /><path
     d=""
     fill="#A3C6B3"
     transform="translate(0,0)"
     id="path104" /><path
     d=""
     fill="#A2C3AF"
     transform="translate(0,0)"
     id="path105" /><path
     d=""
     fill="#A3C5B1"
     transform="translate(0,0)"
     id="path106" /><path
     d=""
     fill="#A4C5B1"
     transform="translate(0,0)"
     id="path107" /><path
     d=""
     fill="#A2C6B2"
     transform="translate(0,0)"
     id="path108" /><path
     d=""
     fill="#9FC3AE"
     transform="translate(0,0)"
     id="path109" /><path
     d=""
     fill="#A7CDC0"
     transform="translate(0,0)"
     id="path110" /><path
     d=""
     fill="#ADD0BD"
     transform="translate(0,0)"
     id="path111" /><path
     d=""
     fill="#8AB5D1"
     transform="translate(0,0)"
     id="path112" /><path
     d=""
     fill="#89B4D4"
     transform="translate(0,0)"
     id="path113" /><path
     d=""
     fill="#8AB4D0"
     transform="translate(0,0)"
     id="path114" /><path
     d=""
     fill="#A6C8B2"
     transform="translate(0,0)"
     id="path115" /><path
     d=""
     fill="#91C5DA"
     transform="translate(0,0)"
     id="path116" /><path
     d=""
     fill="#A6C4AF"
     transform="translate(0,0)"
     id="path117" /><path
     d=""
     fill="#A7C7B3"
     transform="translate(0,0)"
     id="path118" /><path
     d=""
     fill="#A7C6B2"
     transform="translate(0,0)"
     id="path119" /><path
     d=""
     fill="#A4C7B1"
     transform="translate(0,0)"
     id="path120" /><path
     d=""
     fill="#93C3DC"
     transform="translate(0,0)"
     id="path121" /><path
     d=""
     fill="#AACCB9"
     transform="translate(0,0)"
     id="path122" /><path
     d=""
     fill="#88B3D9"
     transform="translate(0,0)"
     id="path123" /><path
     d=""
     fill="#A5C6B0"
     transform="translate(0,0)"
     id="path124" /><path
     d=""
     fill="#8EC2DC"
     transform="translate(0,0)"
     id="path125" /><path
     d=""
     fill="#A6C5B1"
     transform="translate(0,0)"
     id="path126" /><path
     d=""
     fill="#8FBFDB"
     transform="translate(0,0)"
     id="path127" /><path
     d=""
     fill="#8BC0E1"
     transform="translate(0,0)"
     id="path128" /><path
     d=""
     fill="#8DBFDD"
     transform="translate(0,0)"
     id="path129" /><path
     d=""
     fill="#92C1DB"
     transform="translate(0,0)"
     id="path130" /><path
     d=""
     fill="#A5C7B1"
     transform="translate(0,0)"
     id="path131" /><path
     d=""
     fill="#8CC2DC"
     transform="translate(0,0)"
     id="path132" /><path
     d=""
     fill="#90C1DA"
     transform="translate(0,0)"
     id="path133" /><path
     d=""
     fill="#A3C5AE"
     transform="translate(0,0)"
     id="path134" /><path
     d=""
     fill="#A8CAB2"
     transform="translate(0,0)"
     id="path135" /><path
     d=""
     fill="#90C2DB"
     transform="translate(0,0)"
     id="path136" /><path
     d=""
     fill="#ACCFBC"
     transform="translate(0,0)"
     id="path137" /><path
     d=""
     fill="#A4C7B1"
     transform="translate(0,0)"
     id="path138" /><path
     d=""
     fill="#91C3DE"
     transform="translate(0,0)"
     id="path139" /><path
     d=""
     fill="#A7C8B1"
     transform="translate(0,0)"
     id="path140" /><path
     d=""
     fill="#88BEDF"
     transform="translate(0,0)"
     id="path141" /><path
     d=""
     fill="#ABD0BB"
     transform="translate(0,0)"
     id="path142" /><path
     d=""
     fill="#A5C6B3"
     transform="translate(0,0)"
     id="path143" /><path
     d=""
     fill="#A7C5B4"
     transform="translate(0,0)"
     id="path144" /><path
     d=""
     fill="#ACD1BB"
     transform="translate(0,0)"
     id="path145" /><path
     d=""
     fill="#8FB8E0"
     transform="translate(0,0)"
     id="path146" /><path
     d=""
     fill="#8FC0DB"
     transform="translate(0,0)"
     id="path147" /><path
     d=""
     fill="#85AAD5"
     transform="translate(0,0)"
     id="path148" /><path
     d=""
     fill="#A7C8B1"
     transform="translate(0,0)"
     id="path149" /><path
     d=""
     fill="#8DC1DB"
     transform="translate(0,0)"
     id="path150" /><path
     d=""
     fill="#A7C9B3"
     transform="translate(0,0)"
     id="path151" /><path
     d=""
     fill="#8CBEDD"
     transform="translate(0,0)"
     id="path152" /><path
     d=""
     fill="#86A8D6"
     transform="translate(0,0)"
     id="path153" /><path
     d=""
     fill="#91C1DB"
     transform="translate(0,0)"
     id="path154" /><path
     d=""
     fill="#86A7D6"
     transform="translate(0,0)"
     id="path155" /><path
     d=""
     fill="#8FC3DB"
     transform="translate(0,0)"
     id="path156" /><path
     d=""
     fill="#90C3DB"
     transform="translate(0,0)"
     id="path157" /><path
     d=""
     fill="#8FC1DD"
     transform="translate(0,0)"
     id="path158" /><path
     d=""
     fill="#90C1DE"
     transform="translate(0,0)"
     id="path159" /><path
     d=""
     fill="#A7C8B1"
     transform="translate(0,0)"
     id="path160" /><path
     d=""
     fill="#88ABD9"
     transform="translate(0,0)"
     id="path161" /><path
     d=""
     fill="#8EC2DC"
     transform="translate(0,0)"
     id="path162" /><path
     d=""
     fill="#8EC1D8"
     transform="translate(0,0)"
     id="path163" /><path
     d=""
     fill="#92C0DE"
     transform="translate(0,0)"
     id="path164" /><path
     d=""
     fill="#90C3DD"
     transform="translate(0,0)"
     id="path165" /><path
     d=""
     fill="#A7C8B4"
     transform="translate(0,0)"
     id="path166" /><path
     d=""
     fill="#A9CCB5"
     transform="translate(0,0)"
     id="path167" /><path
     d=""
     fill="#9CB0DA"
     transform="translate(0,0)"
     id="path168" /><path
     d=""
     fill="#92C0DF"
     transform="translate(0,0)"
     id="path169" /><path
     d=""
     fill="#A2ADDD"
     transform="translate(0,0)"
     id="path170" /><path
     d=""
     fill="#ABADDE"
     transform="translate(0,0)"
     id="path171" /><path
     d=""
     fill="#ACAEDE"
     transform="translate(0,0)"
     id="path172" /><path
     d=""
     fill="#A8BDE0"
     transform="translate(0,0)"
     id="path173" /><path
     d=""
     fill="#A8BFDE"
     transform="translate(0,0)"
     id="path174" /><path
     d=""
     fill="#A6BEDD"
     transform="translate(0,0)"
     id="path175" /><path
     d=""
     fill="#A9BFDE"
     transform="translate(0,0)"
     id="path176" /><path
     d=""
     fill="#A8BBE1"
     transform="translate(0,0)"
     id="path177" /><path
     d=""
     fill="#AAC0E0"
     transform="translate(0,0)"
     id="path178" /><path
     d=""
     fill="#A9BDE0"
     transform="translate(0,0)"
     id="path179" /><path
     d=""
     fill="#ABBFDF"
     transform="translate(0,0)"
     id="path180" /><path
     d=""
     fill="#A8CEBD"
     transform="translate(0,0)"
     id="path181" /><path
     d=""
     fill="#A8C4DB"
     transform="translate(0,0)"
     id="path182" /><path
     d=""
     fill="#AEBBE4"
     transform="translate(0,0)"
     id="path183" /><path
     d=""
     fill="#90C1DB"
     transform="translate(0,0)"
     id="path184" /><path
     d=""
     fill="#ACB7E0"
     transform="translate(0,0)"
     id="path185" /><path
     d=""
     fill="#ADB5DF"
     transform="translate(0,0)"
     id="path186" /><path
     d=""
     fill="#ADB6E0"
     transform="translate(0,0)"
     id="path187" /><path
     d=""
     fill="#AAB2DB"
     transform="translate(0,0)"
     id="path188" /><path
     d=""
     fill="#95C4D4"
     transform="translate(0,0)"
     id="path189" /><path
     d=""
     fill="#8DBFD6"
     transform="translate(0,0)"
     id="path190" /><path
     d=""
     fill="#90BCDC"
     transform="translate(0,0)"
     id="path191" /><path
     d=""
     fill="#8ABADB"
     transform="translate(0,0)"
     id="path192" /><path
     d=""
     fill="#B5ADE2"
     transform="translate(0,0)"
     id="path193" /><path
     d=""
     fill="#B7AEE0"
     transform="translate(0,0)"
     id="path194" /><path
     d=""
     fill="#AEB2E0"
     transform="translate(0,0)"
     id="path195" /><path
     d=""
     fill="#90C0DC"
     transform="translate(0,0)"
     id="path196" /><path
     d=""
     fill="#95C2D4"
     transform="translate(0,0)"
     id="path197" /><path
     d=""
     fill="#B2BEE0"
     transform="translate(0,0)"
     id="path198" /><path
     d=""
     fill="#B5BCE1"
     transform="translate(0,0)"
     id="path199" /><path
     d=""
     fill="#8CBDDE"
     transform="translate(0,0)"
     id="path200" /><path
     d=""
     fill="#B1B3E1"
     transform="translate(0,0)"
     id="path201" /><path
     d=""
     fill="#8EC0E0"
     transform="translate(0,0)"
     id="path202" /><path
     d=""
     fill="#B5B5E2"
     transform="translate(0,0)"
     id="path203" /><path
     d=""
     fill="#8EBFDF"
     transform="translate(0,0)"
     id="path204" /><path
     d=""
     fill="#AFC6E1"
     transform="translate(0,0)"
     id="path205" /><path
     d=""
     fill="#B2B3E3"
     transform="translate(0,0)"
     id="path206" /><path
     d=""
     fill="#A8C8D9"
     transform="translate(0,0)"
     id="path207" /><path
     d=""
     fill="#BBAFE5"
     transform="translate(0,0)"
     id="path208" /><path
     d=""
     fill="#B1B1E1"
     transform="translate(0,0)"
     id="path209" /><path
     d=""
     fill="#B1B0E0"
     transform="translate(0,0)"
     id="path210" /><path
     d=""
     fill="#94C4D2"
     transform="translate(0,0)"
     id="path211" /><path
     d=""
     fill="#AFC8DC"
     transform="translate(0,0)"
     id="path212" /><path
     d=""
     fill="#B4B3E2"
     transform="translate(0,0)"
     id="path213" /><path
     d=""
     fill="#8FC0E0"
     transform="translate(0,0)"
     id="path214" /><path
     d=""
     fill="#97C3D9"
     transform="translate(0,0)"
     id="path215" /><path
     d=""
     fill="#ADC8DB"
     transform="translate(0,0)"
     id="path216" /><path
     d=""
     fill="#90C0DE"
     transform="translate(0,0)"
     id="path217" /><path
     d=""
     fill="#A8CBB4"
     transform="translate(0,0)"
     id="path218" /><path
     d=""
     fill="#ACCBB9"
     transform="translate(0,0)"
     id="path219" /><path
     d=""
     fill="#ABCCB8"
     transform="translate(0,0)"
     id="path220" /><path
     d=""
     fill="#B8B6E3"
     transform="translate(0,0)"
     id="path221" /><path
     d=""
     fill="#B9AEE5"
     transform="translate(0,0)"
     id="path222" /><path
     d=""
     fill="#ACC5DD"
     transform="translate(0,0)"
     id="path223" /><path
     d=""
     fill="#ACD1B8"
     transform="translate(0,0)"
     id="path224" /><path
     d=""
     fill="#ACC3D8"
     transform="translate(0,0)"
     id="path225" /><path
     d=""
     fill="#ADC3DB"
     transform="translate(0,0)"
     id="path226" /><path
     d=""
     fill="#91C0DE"
     transform="translate(0,0)"
     id="path227" /><path
     d=""
     fill="#9AC8D4"
     transform="translate(0,0)"
     id="path228" /><path
     d=""
     fill="#8DA7D8"
     transform="translate(0,0)"
     id="path229" /><path
     d=""
     fill="#B2BCE1"
     transform="translate(0,0)"
     id="path230" /><path
     d=""
     fill="#B2BCE0"
     transform="translate(0,0)"
     id="path231" /><path
     d=""
     fill="#A4CCC2"
     transform="translate(0,0)"
     id="path232" /><path
     d=""
     fill="#B1D4BB"
     transform="translate(0,0)"
     id="path233" /><path
     d=""
     fill="#A1C6B0"
     transform="translate(0,0)"
     id="path234" /><path
     d=""
     fill="#88A6D5"
     transform="translate(0,0)"
     id="path235" /><path
     d=""
     fill="#99C7D0"
     transform="translate(0,0)"
     id="path236" /><path
     d=""
     fill="#BDAEE4"
     transform="translate(0,0)"
     id="path237" /><path
     d=""
     fill="#ACD0BA"
     transform="translate(0,0)"
     id="path238" /><path
     d=""
     fill="#ADCFB9"
     transform="translate(0,0)"
     id="path239" /><path
     d=""
     fill="#A3C3AD"
     transform="translate(0,0)"
     id="path240" /><path
     d=""
     fill="#BFAFE7"
     transform="translate(0,0)"
     id="path241" /><path
     d=""
     fill="#89A6D7"
     transform="translate(0,0)"
     id="path242" /><path
     d=""
     fill="#9BC6CD"
     transform="translate(0,0)"
     id="path243" /><path
     d=""
     fill="#ACD1B9"
     transform="translate(0,0)"
     id="path244" /><path
     d=""
     fill="#B4BAE3"
     transform="translate(0,0)"
     id="path245" /><path
     d=""
     fill="#B4BCE1"
     transform="translate(0,0)"
     id="path246" /><path
     d=""
     fill="#9DC2CC"
     transform="translate(0,0)"
     id="path247" /><path
     d=""
     fill="#B1BCE1"
     transform="translate(0,0)"
     id="path248" /><path
     d=""
     fill="#BFABE5"
     transform="translate(0,0)"
     id="path249" /><path
     d=""
     fill="#AFD3BC"
     transform="translate(0,0)"
     id="path250" /><path
     d=""
     fill="#B1D4BE"
     transform="translate(0,0)"
     id="path251" /><path
     d=""
     fill="#BEADE7"
     transform="translate(0,0)"
     id="path252" /><path
     d=""
     fill="#BFADE6"
     transform="translate(0,0)"
     id="path253" /><path
     d=""
     fill="#BFAEE4"
     transform="translate(0,0)"
     id="path254" /><path
     d=""
     fill="#AFD0B9"
     transform="translate(0,0)"
     id="path255" /><path
     d=""
     fill="#ADD0BA"
     transform="translate(0,0)"
     id="path256" /><path
     d=""
     fill="#A7C6B3"
     transform="translate(0,0)"
     id="path257" /><path
     d=""
     fill="#A6C6B3"
     transform="translate(0,0)"
     id="path258" /><path
     d=""
     fill="#A0B9DC"
     transform="translate(0,0)"
     id="path259" /><path
     d=""
     fill="#A4C6B2"
     transform="translate(0,0)"
     id="path260" /><path
     d=""
     fill="#A6C6B2"
     transform="translate(0,0)"
     id="path261" /><path
     d=""
     fill="#AFD2BC"
     transform="translate(0,0)"
     id="path262" /><path
     d=""
     fill="#AFD4BC"
     transform="translate(0,0)"
     id="path263" /><path
     d=""
     fill="#BCAFE5"
     transform="translate(0,0)"
     id="path264" /><path
     d=""
     fill="#A7C9B5"
     transform="translate(0,0)"
     id="path265" /><path
     d=""
     fill="#96BADE"
     transform="translate(0,0)"
     id="path266" /><path
     d=""
     fill="#B9ACE3"
     transform="translate(0,0)"
     id="path267" /><path
     d=""
     fill="#AFD0BA"
     transform="translate(0,0)"
     id="path268" /><path
     d=""
     fill="#AFD3BB"
     transform="translate(0,0)"
     id="path269" /><path
     d=""
     fill="#B0D1BB"
     transform="translate(0,0)"
     id="path270" /><path
     d=""
     fill="#A6C7B3"
     transform="translate(0,0)"
     id="path271" /><path
     d=""
     fill="#BBB0E2"
     transform="translate(0,0)"
     id="path272" /><path
     d=""
     fill="#B0D2BA"
     transform="translate(0,0)"
     id="path273" /><path
     d=""
     fill="#ACCFBF"
     transform="translate(0,0)"
     id="path274" /><path
     d=""
     fill="#B2D6BD"
     transform="translate(0,0)"
     id="path275" /><path
     d=""
     fill="#B8AFDE"
     transform="translate(0,0)"
     id="path276" /><path
     d=""
     fill="#91BADD"
     transform="translate(0,0)"
     id="path277" /><path
     d=""
     fill="#B8AEE5"
     transform="translate(0,0)"
     id="path278" /><path
     d=""
     fill="#94B3DF"
     transform="translate(0,0)"
     id="path279" /><path
     d=""
     fill="#93BBE3"
     transform="translate(0,0)"
     id="path280" /><path
     d=""
     fill="#97BBDE"
     transform="translate(0,0)"
     id="path281" /><path
     d=""
     fill="#ABCEBD"
     transform="translate(0,0)"
     id="path282" /><path
     d=""
     fill="#95B9DB"
     transform="translate(0,0)"
     id="path283" /><path
     d=""
     fill="#ADCEB7"
     transform="translate(0,0)"
     id="path284" /><path
     d=""
     fill="#B0D2BB"
     transform="translate(0,0)"
     id="path285" /><path
     d=""
     fill="#ABCBC0"
     transform="translate(0,0)"
     id="path286" /><path
     d=""
     fill="#97BEDE"
     transform="translate(0,0)"
     id="path287" /><path
     d=""
     fill="#A7CBBA"
     transform="translate(0,0)"
     id="path288" /><path
     d=""
     fill="#A9CABC"
     transform="translate(0,0)"
     id="path289" /><path
     d=""
     fill="#A9CABC"
     transform="translate(0,0)"
     id="path290" /><path
     d=""
     fill="#A1AEDE"
     transform="translate(0,0)"
     id="path291" /><path
     d=""
     fill="#AFD0BA"
     transform="translate(0,0)"
     id="path292" /><path
     d=""
     fill="#B0D2BB"
     transform="translate(0,0)"
     id="path293" /><path
     d=""
     fill="#ACB2E1"
     transform="translate(0,0)"
     id="path294" /><path
     d=""
     fill="#AED1BB"
     transform="translate(0,0)"
     id="path295" /><path
     d=""
     fill="#A6C4B0"
     transform="translate(0,0)"
     id="path296" /><path
     d=""
     fill="#B7AFE3"
     transform="translate(0,0)"
     id="path297" /><path
     d=""
     fill="#ACB1E0"
     transform="translate(0,0)"
     id="path298" /><path
     d=""
     fill="#AED1BA"
     transform="translate(0,0)"
     id="path299" /><path
     d=""
     fill="#B7AFE1"
     transform="translate(0,0)"
     id="path300" /><path
     d=""
     fill="#AEB2E0"
     transform="translate(0,0)"
     id="path301" /><path
     d=""
     fill="#ADCFB7"
     transform="translate(0,0)"
     id="path302" /><path
     d=""
     fill="#B1D2BB"
     transform="translate(0,0)"
     id="path303" /><path
     d=""
     fill="#AECEBD"
     transform="translate(0,0)"
     id="path304" /><path
     d=""
     fill="#85A2D3"
     transform="translate(0,0)"
     id="path305" /><path
     d=""
     fill="#92BADE"
     transform="translate(0,0)"
     id="path306" /><path
     d=""
     fill="#93BBDD"
     transform="translate(0,0)"
     id="path307" /><path
     d=""
     fill="#AFD3BB"
     transform="translate(0,0)"
     id="path308" /><path
     d=""
     fill="#90B7D9"
     transform="translate(0,0)"
     id="path309" /><path
     d=""
     fill="#86A6D5"
     transform="translate(0,0)"
     id="path310" /><path
     d=""
     fill="#A5C9C1"
     transform="translate(0,0)"
     id="path311" /><path
     d=""
     fill="#89A5D4"
     transform="translate(0,0)"
     id="path312" /><path
     d=""
     fill="#8FB4D9"
     transform="translate(0,0)"
     id="path313" /><path
     d=""
     fill="#90B7D4"
     transform="translate(0,0)"
     id="path314" /><path
     d=""
     fill="#87A5D3"
     transform="translate(0,0)"
     id="path315" /><path
     d=""
     fill="#ACD3BD"
     transform="translate(0,0)"
     id="path316" /><path
     d=""
     fill="#ACD0BA"
     transform="translate(0,0)"
     id="path317" /><path
     d=""
     fill="#85A3D1"
     transform="translate(0,0)"
     id="path318" /><path
     d=""
     fill="#92B5D9"
     transform="translate(0,0)"
     id="path319" /><path
     d=""
     fill="#ABCEB6"
     transform="translate(0,0)"
     id="path320" /><path
     d=""
     fill="#91B6DC"
     transform="translate(0,0)"
     id="path321" /><path
     d=""
     fill="#AED0BC"
     transform="translate(0,0)"
     id="path322" /><path
     d=""
     fill="#A2C5B0"
     transform="translate(0,0)"
     id="path323" /><path
     d=""
     fill="#A2C2AB"
     transform="translate(0,0)"
     id="path324" /><path
     d=""
     fill="#9CBCA8"
     transform="translate(0,0)"
     id="path325" /><path
     d=""
     fill="#8EB4DB"
     transform="translate(0,0)"
     id="path326" /><path
     d=""
     fill="#8DAED7"
     transform="translate(0,0)"
     id="path327" /><path
     d=""
     fill="#AED1B9"
     transform="translate(0,0)"
     id="path328" /><path
     d=""
     fill="#88A8D6"
     transform="translate(0,0)"
     id="path329" /><path
     d=""
     fill="#8EAFD9"
     transform="translate(0,0)"
     id="path330" /><path
     d=""
     fill="#8EB1DA"
     transform="translate(0,0)"
     id="path331" /><path
     d=""
     fill="#AACAB5"
     transform="translate(0,0)"
     id="path332" /><path
     d=""
     fill="#8EAFDA"
     transform="translate(0,0)"
     id="path333" /><path
     d=""
     fill="#A9CBBD"
     transform="translate(0,0)"
     id="path334" /><path
     d=""
     fill="#B0D1BA"
     transform="translate(0,0)"
     id="path335" /><path
     d=""
     fill="#ADD2BB"
     transform="translate(0,0)"
     id="path336" /><path
     d=""
     fill="#AFCFBD"
     transform="translate(0,0)"
     id="path337" /><path
     d=""
     fill="#ADD0B9"
     transform="translate(0,0)"
     id="path338" /><path
     d=""
     fill="#B0D4BE"
     transform="translate(0,0)"
     id="path339" /><path
     d=""
     fill="#ADD0B9"
     transform="translate(0,0)"
     id="path340" /><path
     d=""
     fill="#ABCBB5"
     transform="translate(0,0)"
     id="path341" /><path
     d=""
     fill="#ACD0B8"
     transform="translate(0,0)"
     id="path342" /><path
     d=""
     fill="#A6CBB8"
     transform="translate(0,0)"
     id="path343" /><path
     d=""
     fill="#B0D3BD"
     transform="translate(0,0)"
     id="path344" /><path
     d=""
     fill="#AACEB9"
     transform="translate(0,0)"
     id="path345" /><path
     d=""
     fill="#A9C9B8"
     transform="translate(0,0)"
     id="path346" /><path
     d=""
     fill="#AFD1BD"
     transform="translate(0,0)"
     id="path347" /><path
     d=""
     fill="#A8CBBA"
     transform="translate(0,0)"
     id="path348" /><path
     d=""
     fill="#A6CBB6"
     transform="translate(0,0)"
     id="path349" /><path
     d=""
     fill="#AED0B9"
     transform="translate(0,0)"
     id="path350" /><path
     d=""
     fill="#ADCFBB"
     transform="translate(0,0)"
     id="path351" /><path
     d=""
     fill="#AECEBA"
     transform="translate(0,0)"
     id="path352" /><path
     d=""
     fill="#ACCFB7"
     transform="translate(0,0)"
     id="path353" /><path
     d=""
     fill="#AED1BC"
     transform="translate(0,0)"
     id="path354" /><path
     d=""
     fill="#A7C8B1"
     transform="translate(0,0)"
     id="path355" /><path
     d=""
     fill="#AFD0BA"
     transform="translate(0,0)"
     id="path356" /><path
     d=""
     fill="#AED0BB"
     transform="translate(0,0)"
     id="path357" /><path
     d=""
     fill="#ABCEB6"
     transform="translate(0,0)"
     id="path358" /><path
     d=""
     fill="#A7C9B1"
     transform="translate(0,0)"
     id="path359" /><path
     d=""
     fill="#ACCEB6"
     transform="translate(0,0)"
     id="path360" /><path
     d=""
     fill="#A6C8B1"
     transform="translate(0,0)"
     id="path361" /><path
     d=""
     fill="#ABCBB5"
     transform="translate(0,0)"
     id="path362" /><path
     d=""
     fill="#A3C4B2"
     transform="translate(0,0)"
     id="path363" /><path
     d=""
     fill="#A6C7B0"
     transform="translate(0,0)"
     id="path364" /><path
     d=""
     fill="#A6C5B1"
     transform="translate(0,0)"
     id="path365" /><path
     d=""
     fill="#A4C4AF"
     transform="translate(0,0)"
     id="path366" /><path
     d=""
     fill="#A5C7B1"
     transform="translate(0,0)"
     id="path367" /><path
     d=""
     fill="#ABCBB5"
     transform="translate(0,0)"
     id="path368" /><path
     d=""
     fill="#AED0B9"
     transform="translate(0,0)"
     id="path369" /><path
     d=""
     fill="#AECFB8"
     transform="translate(0,0)"
     id="path370" /><path
     d=""
     fill="#A5C5AF"
     transform="translate(0,0)"
     id="path371" /><path
     style="fill:#a8ceb5;fill-opacity:1"
     d="m 512.92757,907.20098 c -20.564,-3.3583 -38.1836,-9.8995 -61.9728,-23.0071 -23.9112,-13.1748 -44.8235,-29.3836 -65.2102,-50.5438 -32.5628,-33.7981 -53.6079,-70.3034 -68.0119,-117.9752 -9.0777,-30.0438 -12.3777,-52.3455 -13.6874,-92.5 -1.1096,-34.0215 -2.3043,-52.4454 -4.5717,-70.5 -5.2219,-41.58 -18.6721,-77.75842 -36.0104,-96.86078 -12.9631,-14.28199 -35.2731,-28.00451 -56.9051,-35.00139 -12.696,-4.10653 -29.517,-8.20323 -34.6478,-8.43839 l -4.3522,-0.19947 0.096,14.5 c 0.2232,33.81397 9.4372,59.21667 29.0014,79.95573 13.1732,13.9644 29.9283,23.0588 57.3061,31.1051 8.7177,2.5621 11.4655,3.7877 12.0587,5.3787 0.4226,1.1333 1.0915,10.273 1.4865,20.3105 0.5865,14.9026 0.4737,18.2485 -0.6151,18.242 -3.6017,-0.021 -26.6533,-5.3971 -36.8333,-8.5896 -40.4638,-12.6897 -69.2643,-36.8147 -87.4561,-73.25816 -16.048,-32.14878 -20.5292,-74.50377 -12.3897,-117.10254 2.915,-15.25555 2.0233,-14.42879 14.7003,-13.62932 31.2873,1.97312 62.0448,8.34922 87.3488,18.10763 21.644,8.34694 45.0752,23.89486 59.1694,39.26232 13.326,14.52974 19.0602,24.01961 30.6456,50.71764 3.3968,7.82788 6.2006,13 7.0473,13 0.8351,0 3.2192,-4.26291 5.8722,-10.5 8.1414,-19.14055 29.835,-61.27778 39.2685,-76.27432 29.4939,-46.88681 64.4912,-87.82009 101.9708,-119.26606 10.3518,-8.68534 13.643,-10.97287 14.5223,-10.09357 0.9865,0.98654 -1.1804,4.61424 -15.6103,26.13395 -24.8769,37.0994 -39.5576,61.17003 -54.8911,90 -11.1814,21.0232 -13.7104,26.5 -12.2369,26.5 1.3164,0 51.4618,-19.37604 59.6303,-23.041 11.0412,-4.95385 26.5997,-13.91805 34.3749,-19.80548 28.5596,-21.62541 49.7721,-55.27899 56.9729,-90.38747 6.881,-33.54945 4.6857,-67.66146 -6.5653,-102.01605 -1.396,-4.2625 -2.7305,-7.75 -2.9657,-7.75 -0.2351,0 -3.6857,2.39296 -7.6679,5.31768 -8.5647,6.29042 -21.7529,14.43895 -34.2403,21.15594 -22.7973,12.26268 -61.3042,33.99436 -66.8553,37.7303 -13.1086,8.82213 -28.4115,20.86949 -34.2243,26.94337 -14.8507,15.51771 -26.1696,34.9563 -31.0805,53.37619 -2.3628,8.86207 -2.6735,11.9314 -2.7822,27.47652 -0.088,12.57491 -0.4999,18.17995 -1.464,19.91601 -0.738,1.3288 -5.3504,8.47227 -10.2498,15.87437 -4.8994,7.40211 -11.1949,17.70052 -13.9899,22.88537 -6.1875,11.47762 -7.49,11.71478 -10.0108,1.82275 -4.7768,-18.74521 -6.2757,-31.33373 -6.2507,-52.4985 0.035,-30.13314 3.6405,-47.1816 14.9076,-70.5 20.4595,-42.34307 48.2985,-66.64138 121.4999,-106.04676 38.0003,-20.45611 53.773,-30.29566 78.8079,-49.16296 8.969,-6.75965 16.7086,-12.29028 17.1988,-12.29028 2.8016,0 16.7202,25.74075 24.4228,45.16713 11.0674,27.91225 17.7127,66.56946 16.1304,93.83287 -1.8583,32.01584 -8.1574,56.22739 -21.6519,83.22136 -14.5261,29.05753 -30.8297,49.12276 -54.4083,66.96175 -17.9974,13.61636 -30.4508,20.08715 -70,36.37182 -39.9277,16.44054 -48.2234,20.99431 -64.2955,35.29385 -10.8145,9.62183 -18.5723,20.07056 -25.5325,34.38895 -15.4267,31.7354 -22.6219,67.3944 -22.6621,112.3124 -0.056,62.5113 20.5642,122.2386 58.3705,169.0729 8.1573,10.1052 27.5008,28.6788 38.1354,36.6176 25.6007,19.1109 55.5692,34.0839 75.7181,37.8307 8.5769,1.5949 24.1105,1.6093 30.7661,0.029 9.5168,-2.2604 19.5067,-7.8283 27.5906,-15.3777 12.2455,-11.4361 16.6753,-21.1657 16.7189,-36.7221 0.069,-24.5844 -10.5042,-41.9165 -37.8095,-61.98 -11.6116,-8.532 -15.1547,-10.6811 -38,-23.0487 -41.0995,-22.2497 -54.2406,-30.3308 -74.5,-45.8136 -13.6213,-10.4098 -20.6144,-16.9317 -30.7284,-28.6577 -17.5008,-20.2901 -29.4105,-41.0594 -34.979,-61 -2.585,-9.2565 -2.7883,-11.301 -2.7353,-27.5 0.053,-16.1611 0.2677,-18.1857 2.8074,-26.4631 3.4746,-11.3246 7.4296,-20.3438 13.751,-31.359 8.636,-15.0483 8.5484,-15.09995 8.5136,5.0203 -0.034,19.5047 1.7504,33.0877 6.4028,48.7483 8.1932,27.5792 25.037,55.4056 45.249,74.7525 8.013,7.67 26.144,21.8277 35.2189,27.501 6.7949,4.248 36.2282,20.6649 52,29.004 23.4777,12.4134 51.0484,31.2686 62.5242,42.7594 10.3922,10.4057 19.0126,22.5058 24.5095,34.4032 1.9398,4.1984 3.9217,7.6334 4.4044,7.6334 0.4826,0 6.0307,-6.1875 12.329,-13.75 11.0497,-13.2676 40.8634,-43.292 68.7639,-69.25 42.2786,-39.335 68.1703,-71.4846 84.9004,-105.4204 13.4744,-27.3317 18.9479,-48.1618 19.8136,-75.4036 0.9733,-30.62684 -4.2581,-51.62695 -18.2689,-73.33608 -9.3178,-14.43755 -28.4714,-30.8824 -44.3603,-38.08676 -20.4984,-9.29443 -47.5952,-10.89622 -70.7612,-4.18295 -21.093,6.11249 -35.917,17.06135 -54.7394,40.42981 -11.4777,14.2498 -17.493,21 -18.7138,21 -0.4642,0 -7.9876,-6.8625 -16.7188,-15.25 -11.8432,-11.37707 -18.9589,-17.2817 -28.0188,-23.25 -6.6792,-4.4 -12.1485,-8.5316 -12.1539,-9.18133 -0.01,-0.64973 2.6628,-3.50594 5.9294,-6.34714 3.2666,-2.8412 10.0841,-10.05181 15.1499,-16.02359 7.2996,-8.60481 9.5481,-10.67721 10.8367,-9.98758 0.8943,0.4786 6.3087,4.95831 12.0321,9.95491 5.7233,4.9966 10.6786,9.08473 11.0117,9.08473 0.333,0 5.9911,-5.2875 12.5735,-11.75 23.4136,-22.98724 45.9597,-37.45824 73.9568,-47.46836 46.8327,-16.74461 92.6745,-13.73384 129.6971,8.51816 13.0208,7.82598 20.6151,13.67365 30.1817,23.24032 26.0401,26.04008 40.5029,58.5564 44.6833,100.45988 2.3465,23.5213 -1.8447,54.52798 -11.1063,82.16398 -5.6087,16.7362 -22.2077,46.3709 -35.4758,63.336 -20.1618,25.7797 -48.2171,53.2423 -92.98,91.0159 -39.3804,33.2314 -72.8092,65.941 -92.736,90.7408 -7.5328,9.3748 -27.141,39.3577 -33.8391,51.7433 -8.1546,15.0787 -12.8405,21.8906 -19.7075,28.6487 -12.0651,11.8739 -27.4912,20.4493 -45.0116,25.0222 -8.1645,2.1309 -12.4848,2.5913 -27.2058,2.899 -11.9386,0.2495 -20.2427,-0.082 -26.1305,-1.0437 z m 50.307,-254.1255 c -23.9671,-4.0193 -46.9316,-21.0984 -58.073,-43.1897 -12.7288,-25.2391 -10.9032,-59.5949 4.3912,-82.637 5.3628,-8.0793 16.7992,-19.5529 24.3037,-24.38258 12.6933,-8.16908 27.7857,-12.4123 44.2016,-12.42719 27.3548,-0.0248 48.4826,10.40737 65.5586,32.37057 20.3455,26.1685 21.6824,66.6748 3.122,94.5936 -5.9016,8.8772 -18.4219,20.8471 -27.278,26.0786 -8.4397,4.9855 -19.323,8.6904 -29.725,10.1189 -9.8692,1.3553 -16.0137,1.2335 -26.5011,-0.5252 z m 32.4373,-44.8594 c 29.3928,-14.5267 29.3962,-56.4997 0.01,-71.8377 -5.7979,-3.0258 -6.6979,-3.194 -17.1196,-3.1986 -9.8472,0 -11.5993,0.276 -16.7181,2.6751 -7.9846,3.7424 -15.137,10.7646 -19.0406,18.6939 -3.0607,6.2172 -3.2413,7.198 -3.2413,17.605 0,10.2894 0.2092,11.4626 3.1513,17.6723 9.5584,20.1748 32.9306,28.2903 52.9625,18.39 z"
     id="path379" /><path
     id="path385"
     style="fill:url(#linearGradient386);fill-opacity:1"
     d="M 578.05859 490.43945 C 561.64269 490.45435 546.55072 494.69615 533.85742 502.86523 C 526.35292 507.69491 514.91553 519.16875 509.55273 527.24805 C 494.25833 550.29015 492.43331 584.64762 505.16211 609.88672 C 516.30351 631.97802 539.26728 649.05687 563.23438 653.07617 C 573.72177 654.83487 579.86713 654.95686 589.73633 653.60156 C 600.13833 652.17306 611.02124 648.46792 619.46094 643.48242 C 628.31704 638.25092 640.83668 626.27954 646.73828 617.40234 C 665.29868 589.48354 663.96269 548.97905 643.61719 522.81055 C 626.54119 500.84735 605.41339 490.41465 578.05859 490.43945 z M 576.80078 532.87305 C 583.11241 532.623 590.07851 533.45475 595.68164 536.37891 C 625.06784 551.71691 625.0649 593.6901 595.67188 608.2168 L 595.67578 608.2168 C 575.64388 618.1171 552.27129 610.00097 542.71289 589.82617 C 538.30007 580.51233 537.71228 564.88915 542.80273 554.54883 C 546.70633 546.61953 553.85915 539.59787 561.84375 535.85547 C 564.83199 534.45493 570.48915 533.12309 576.80078 532.87305 z " /><path
     style="fill:#82b2e0;fill-opacity:1"
     d="m 744.41406,329.92578 c -16.87075,0.75014 -34.2932,4.25202 -51.85547,10.53125 -27.9971,10.01012 -50.54343,24.48151 -73.95703,47.46875 -6.5824,6.4625 -12.24122,11.75 -12.57422,11.75 -0.3331,0 -5.28842,-4.08934 -11.01172,-9.08594 -5.72339,-4.9966 -11.13694,-9.47452 -12.03124,-9.95312 -1.28861,-0.68963 -3.5383,1.38152 -10.8379,9.98633 -5.0658,5.97178 -11.88183,13.18223 -15.14843,16.02343 -3.2666,2.8412 -5.93969,5.69793 -5.92969,6.34766 0.005,0.64973 5.4751,4.78164 12.1543,9.18164 9.0599,5.9683 16.17437,11.87293 28.01757,23.25 8.7312,8.3875 16.25455,15.25 16.71875,15.25 1.2208,0 7.23715,-6.7502 18.71485,-21 18.8224,-23.36846 33.64528,-34.3172 54.73828,-40.42969 23.166,-6.71327 50.26332,-5.11279 70.76172,4.18164 15.8889,7.20436 35.04157,23.65035 44.35937,38.08789 14.0108,21.70913 19.24283,42.7091 18.26953,73.33594 -0.8657,27.2418 -6.3381,48.0726 -19.8125,75.4043 -16.7301,33.9358 -42.62179,66.08492 -84.90039,105.41992 -27.9005,25.958 -57.71592,55.9824 -68.76562,69.25 -6.2983,7.5625 -11.84553,13.75 -12.32813,13.75 -0.4827,0 -2.46449,-3.43636 -4.40429,-7.63476 -5.4969,-11.8974 -14.11757,-23.99665 -24.50977,-34.40235 -11.4758,-11.4908 -39.04574,-30.34636 -62.52344,-42.75976 -15.7718,-8.3391 -45.2051,-24.75591 -52,-29.00391 -9.0749,-5.6733 -27.20575,-19.83 -35.21875,-27.5 -20.212,-19.3469 -37.0568,-47.17471 -45.25,-74.75391 -4.6524,-15.6606 -6.43634,-29.24334 -6.40234,-48.74804 0.0348,-20.12025 0.12233,-20.06783 -8.51367,-5.01953 -6.3214,11.0152 -10.27735,20.03477 -13.75195,31.35937 -2.5397,8.2774 -2.75365,10.30179 -2.80665,26.46289 -0.053,16.199 0.15133,18.2435 2.73633,27.5 5.5685,19.9406 17.47772,40.7099 34.97852,61 10.114,11.726 17.10721,18.2484 30.72851,28.6582 20.2594,15.4828 33.4005,23.5628 74.5,45.8125 22.8453,12.3676 26.3884,14.51683 38,23.04883 27.3053,20.0635 37.8776,37.39607 37.8086,61.98047 2.98069,66.27394 -72.02397,98.58325 -128.40039,76.33008 17.61103,8.6769 32.32236,13.47807 48.96093,16.19531 5.8878,0.9617 14.19226,1.29442 26.13086,1.04492 14.721,-0.3077 19.04058,-0.76949 27.20508,-2.90039 17.5204,-4.5729 32.94662,-13.14758 45.01172,-25.02148 6.867,-6.7581 11.55243,-13.56974 19.70703,-28.64844 6.6981,-12.3856 26.30705,-42.36934 33.83985,-51.74414 19.9268,-24.7998 53.35592,-57.50883 92.73632,-90.74023 44.7629,-37.7736 72.81672,-65.23593 92.97852,-91.01563 13.2681,-16.9651 29.86786,-46.59974 35.47656,-63.33594 9.2616,-27.636 13.45392,-58.64276 11.10742,-82.16406 -4.1804,-41.90348 -18.64349,-74.42086 -44.68359,-100.46094 -9.5666,-9.56667 -17.16084,-15.41425 -30.18164,-23.24023 -23.13913,-13.9075 -49.72388,-20.29906 -77.8418,-19.04883 z"
     id="path383" /><path
     id="path382"
     style="fill:#bfa7e6;fill-opacity:1"
     d="M 726.72461 368.04102 C 677.80247 367.7851 629.37859 397.24787 607.95898 460.67578 C 609.17978 460.67578 615.19613 453.92558 626.67383 439.67578 C 645.49623 416.30732 660.31911 405.35858 681.41211 399.24609 C 704.57811 392.53282 731.67543 394.1333 752.17383 403.42773 C 768.06273 410.63209 787.2154 427.07808 796.5332 441.51562 C 810.544 463.22475 815.77603 484.22472 814.80273 514.85156 C 813.93703 542.09336 808.46463 562.92416 794.99023 590.25586 C 778.26013 624.19166 752.36844 656.34078 710.08984 695.67578 C 902.20333 583.71338 853.0416 451.52737 829.31055 420.57227 C 803.12696 386.41804 764.77516 368.24006 726.72461 368.04102 z " /></svg>
